HIERARCHY
ROOT Hips
{
	OFFSET	0.00	0.00	0.00
	CHANNELS 6 Xposition Yposition Zposition Zrotation Xrotation Yrotation
	JOINT LeftUpLeg
	{
		OFFSET	 0.126116	-0.014019	-0.065224
		CHANNELS 3 Zrotation Xrotation Yrotation
		JOINT LeftLeg
		{
			OFFSET	 0.000000	 0.000000	 0.569914
			CHANNELS 3 Zrotation Xrotation Yrotation
			JOINT LeftFoot
			{
				OFFSET	 0.000000	 0.000000	 0.544423
				CHANNELS 3 Zrotation Xrotation Yrotation
				JOINT LeftToeBase
				{
					OFFSET	 0.000000	 0.000000	 0.207117
					CHANNELS 3 Zrotation Xrotation Yrotation
					End Site
					{
						OFFSET	 0.000000	 0.000000	 0.207117
					}
				}
			}
		}
	}
	JOINT RightUpLeg
	{
		OFFSET	-0.124023	-0.008373	-0.065224
		CHANNELS 3 Zrotation Xrotation Yrotation
		JOINT RightLeg
		{
			OFFSET	 0.000000	 0.000000	 0.570047
			CHANNELS 3 Zrotation Xrotation Yrotation
			JOINT RightFoot
			{
				OFFSET	 0.000000	 0.000000	 0.544354
				CHANNELS 3 Zrotation Xrotation Yrotation
				JOINT RightToeBase
				{
					OFFSET	 0.000000	 0.000000	 0.207540
					CHANNELS 3 Zrotation Xrotation Yrotation
					End Site
					{
						OFFSET	 0.000000	 0.000000	 0.207540
					}
				}
			}
		}
	}
	JOINT Spine
	{
		OFFSET	 0.000184	-0.007763	 0.117403
		CHANNELS 3 Zrotation Xrotation Yrotation
		JOINT Spine1
		{
			OFFSET	 0.000000	 0.000000	 0.137269
			CHANNELS 3 Zrotation Xrotation Yrotation
			JOINT Spine2
			{
				OFFSET	 0.000000	 0.000000	 0.156879
				CHANNELS 3 Zrotation Xrotation Yrotation
				JOINT LeftShoulder
				{
					OFFSET	 0.080501	-0.002496	 0.160144
					CHANNELS 3 Zrotation Xrotation Yrotation
					JOINT LeftArm
					{
						OFFSET	 0.000000	 0.000000	 0.164363
						CHANNELS 3 Zrotation Xrotation Yrotation
						JOINT LeftForeArm
						{
							OFFSET	 0.000000	 0.000000	 0.364576
							CHANNELS 3 Zrotation Xrotation Yrotation
							JOINT LeftHand
							{
								OFFSET	 0.000000	 0.000000	 0.360812
								CHANNELS 3 Zrotation Xrotation Yrotation
								JOINT LeftHandIndex1
								{
									OFFSET	 0.000000	 0.000000	 0.086006
									CHANNELS 3 Zrotation Xrotation Yrotation
									JOINT LeftHandIndex2
									{
										OFFSET	 0.000000	 0.000000	 0.047237
										CHANNELS 3 Zrotation Xrotation Yrotation
										JOINT LeftHandIndex3
										{
											OFFSET	-0.004284	-0.000551	 0.038165
											CHANNELS 3 Zrotation Xrotation Yrotation
											End Site
											{
												OFFSET	-0.004284	-0.000551	 0.038165
											}
										}
									}
								}
							}
						}
					}
				}
				JOINT Neck
				{
					OFFSET	 0.000000	 0.000000	 0.176489
					CHANNELS 3 Zrotation Xrotation Yrotation
					JOINT Head
					{
						OFFSET	 0.000000	-0.001747	 0.077940
						CHANNELS 3 Zrotation Xrotation Yrotation
						End Site
						{
							OFFSET	 0.000000	-0.001747	 0.077940
						}
					}
				}
				JOINT RightShoulder
				{
					OFFSET	-0.080363	 0.000306	 0.159706
					CHANNELS 3 Zrotation Xrotation Yrotation
					JOINT RightArm
					{
						OFFSET	 0.000000	 0.000000	 0.164196
						CHANNELS 3 Zrotation Xrotation Yrotation
						JOINT RightForeArm
						{
							OFFSET	 0.000000	 0.000000	 0.365611
							CHANNELS 3 Zrotation Xrotation Yrotation
							JOINT RightHand
							{
								OFFSET	 0.000000	 0.000000	 0.360648
								CHANNELS 3 Zrotation Xrotation Yrotation
								JOINT RightHandIndex1
								{
									OFFSET	 0.000000	 0.000000	 0.069977
									CHANNELS 3 Zrotation Xrotation Yrotation
									JOINT RightHandIndex2
									{
										OFFSET	 0.000000	 0.000000	 0.052305
										CHANNELS 3 Zrotation Xrotation Yrotation
										JOINT RightHandIndex3
										{
											OFFSET	 0.009002	-0.000782	 0.042196
											CHANNELS 3 Zrotation Xrotation Yrotation
											End Site
											{
												OFFSET	 0.009002	-0.000782	 0.042196
											}
										}
									}
								}
							}
						}
					}
				}
			}
		}
	}
}
MOTION
Frames:    8
Frame Time: 0.03333334
-0.727509	-0.006076	 1.270797	-176.990000	-6.132867	 1.116571	 12.518710	 1.758991	 174.808900	-6.513853	-17.247610	-2.379366	-9.186059	 73.450700	 1.899447	-2.385833	 28.452760	 0.000004	-10.824430	 5.202912	-177.772200	 3.626488	-13.483870	 0.898268	 6.779270	 71.635720	-3.160021	 2.384659	 28.388700	-0.000001	-10.438300	 6.521026	-1.932177	-4.876081	 9.790988	-0.337278	 9.088930	-7.137717	 5.297502	-91.776160	 78.527380	 180.000000	-32.856670	 13.950350	 17.980670	-16.620480	-3.175211	-61.000360	-2.888775	-31.907370	-2.673461	-4.130354	 21.526190	 0.991307	-5.167926	 0.731697	 3.519349	-1.378229	 35.397820	-2.634230	-9.329019	 1.540413	 4.450290	-2.756488	-18.863300	-4.758606	 89.782100	 78.203830	 180.000000	 2.365781	 6.649487	-11.942270	 10.719220	-3.097953	 69.338420	 44.938790	 36.679660	 14.613870	 5.716295	 19.173350	-3.684826	 5.027458	 0.246833	-9.377971	-2.350882	 35.473990	 5.254307
-0.727459	-0.006088	 1.270562	-176.927600	-6.196124	 1.121983	 12.767690	 1.584502	 174.636100	-6.735237	-17.868560	-2.531358	-9.301297	 73.629640	 2.216797	-2.385833	 28.452760	 0.000004	-10.963670	 5.248403	-177.693100	 3.769423	-13.897730	 0.959785	 6.933292	 71.752980	-3.477591	 2.384659	 28.388700	-0.000001	-10.681070	 6.522402	-1.991798	-5.037646	 9.722338	-0.265040	 9.002534	-7.165256	 5.205033	-91.776090	 78.527400	 179.999900	-32.440430	 16.360930	 20.601610	-16.881250	-3.235067	-65.147190	-3.105496	-32.142850	-2.698747	-4.130354	 21.526190	 0.991307	-5.167926	 0.731697	 3.519349	-1.378229	 35.397820	-2.634230	-9.445286	 1.587020	 4.568445	-2.856672	-18.969180	-4.936048	 89.782100	 78.203820	 180.000000	 2.462726	 8.468768	-12.422270	 10.941110	-3.013625	 72.576000	 45.643050	 35.588030	 12.924100	 5.716295	 19.173350	-3.684826	 5.027458	 0.246833	-9.377971	-2.350882	 35.473990	 5.254307
-0.727508	-0.006126	 1.269241	-176.830900	-5.964881	 1.222818	 12.249350	 0.296682	 174.067400	-6.721574	-21.291780	-2.989857	-15.079800	 75.771930	 8.035574	-2.385833	 28.452760	 0.000004	-10.642050	 5.038422	-177.624400	 3.650317	-16.092810	 1.074454	 10.273630	 73.955610	-6.887749	 2.384659	 28.388700	-0.000001	-12.200990	 6.125634	-2.198965	-6.058882	 8.549449	-0.979602	 9.067937	-6.276814	 5.605556	-91.776130	 78.527380	 180.000000	-27.100310	 30.542880	 30.926760	-17.775080	-4.010632	-81.537030	-3.057970	-32.159940	-2.793237	-4.130354	 21.526190	 0.991307	-5.167926	 0.731697	 3.519349	-1.378229	 35.397820	-2.634230	-9.361673	 1.505690	 4.785993	-2.765920	-18.610740	-5.400111	 89.782140	 78.203920	 180.000000	 0.702337	 19.721110	-12.838430	 11.743650	-3.029253	 87.384800	 38.302100	 25.451120	 10.842540	 5.716295	 19.173350	-3.684826	 5.027458	 0.246833	-9.377971	-2.350882	 35.473990	 5.254307
-0.727609	-0.006169	 1.267109	-176.730700	-5.507416	 1.160629	 11.809220	-1.217319	 173.222300	-6.967251	-25.727460	-3.681346	-27.491560	 78.388340	 20.763070	-2.385833	 28.452760	 0.000004	-10.278110	 5.034690	-177.229200	 3.665828	-18.986400	 1.266102	 15.586780	 77.056120	-12.387490	 2.384659	 28.388700	-0.000001	-14.763480	 5.368888	-2.171185	-7.822435	 6.516321	-2.730257	 9.073635	-4.580815	 6.562545	-91.776240	 78.527360	-180.000000	-13.033650	 56.535440	 27.876460	-17.932640	-4.551445	-84.682010	-3.193870	-32.420690	-2.907140	-4.130354	 21.526190	 0.991307	-5.167926	 0.731697	 3.519349	-1.378229	 35.397820	-2.634230	-9.248374	 1.357548	 4.865648	-2.665360	-18.182140	-5.644231	 89.782100	 78.203870	 180.000000	-10.245170	 42.082650	-3.259929	 12.328390	-2.826333	 99.150980	 18.192440	 15.790670	 11.252410	 5.716295	 19.173350	-3.684826	 5.027458	 0.246833	-9.377971	-2.350882	 35.473990	 5.254307
-0.727869	-0.006274	 1.265469	-176.725800	-4.926948	 0.838969	 11.846640	-2.247858	 172.622100	-7.361013	-28.885020	-4.288773	-42.039830	 79.506110	 35.837170	-2.385833	 28.452760	 0.000004	-9.692637	 5.224162	-176.645600	 3.626030	-21.021470	 1.381604	 20.926790	 79.647840	-17.705960	 2.384659	 28.388700	-0.000001	-17.321440	 4.450088	-1.699023	-9.610719	 4.597907	-5.043426	 9.082084	-2.608583	 7.819698	-91.776250	 78.527420	-179.999900	 13.887100	 71.593790	-10.130810	-15.728740	-3.939988	-56.563800	-3.604772	-32.909240	-3.010001	-4.130354	 21.526190	 0.991307	-5.167926	 0.731697	 3.519349	-1.378229	 35.397820	-2.634230	-8.939552	 0.904018	 4.612197	-2.442555	-17.440210	-5.075407	 89.782100	 78.203850	 180.000000	-39.212970	 56.999240	 25.950980	 12.115920	-2.917874	 95.004990	-3.234427	 9.491929	 19.946070	 5.716295	 19.173350	-3.684826	 5.027458	 0.246833	-9.377971	-2.350882	 35.473990	 5.254307
-0.728700	-0.006447	 1.265767	-176.780900	-4.568378	 1.003651	 12.019700	-2.893695	 172.120500	-7.526541	-30.306920	-4.564643	-50.720940	 80.106720	 44.651130	-2.385833	 28.452760	 0.000004	-9.150846	 5.444847	-176.700600	 3.419037	-21.468720	 1.333569	 23.808550	 80.302830	-20.428280	 2.384659	 28.388700	-0.000001	-18.913380	 4.335650	-1.893867	-10.569620	 3.333774	-6.226135	 9.171385	-1.341269	 8.549581	-91.776180	 78.527400	-180.000000	 20.887460	 71.766510	-33.878710	-13.866430	-1.753187	-22.055720	-3.774018	-33.251940	-3.140340	-4.130354	 21.526190	 0.991307	-5.167926	 0.731697	 3.519349	-1.378229	 35.397820	-2.634230	-8.606160	 0.635405	 4.637452	-2.165869	-16.464100	-5.354311	 89.782070	 78.203870	-180.000000	-56.050510	 57.262430	 43.434380	 11.928890	-3.888199	 91.431650	-10.613400	 7.304657	 26.619690	 5.716295	 19.173350	-3.684826	 5.027458	 0.246833	-9.377971	-2.350882	 35.473990	 5.254307
-0.729978	-0.006568	 1.267505	-176.777600	-4.175482	 1.380388	 12.483380	-3.612948	 171.935800	-7.477466	-30.562740	-4.573907	-50.381630	 80.402470	 44.170190	-2.385833	 28.452760	 0.000004	-8.645128	 5.083586	-177.140100	 3.283272	-21.249250	 1.271199	 23.619590	 80.081670	-20.123010	 2.384659	 28.388700	-0.000001	-19.689500	 4.722340	-2.169508	-10.759280	 2.173002	-6.879778	 9.343582	-0.313322	 8.881580	-91.776120	 78.527350	 180.000000	 18.844530	 71.553570	-30.143000	-13.881030	-1.937002	-24.383530	-3.826102	-33.661550	-3.238802	-4.130354	 21.526190	 0.991307	-5.167926	 0.731697	 3.519349	-1.378229	 35.397820	-2.634230	-8.066442	 0.243545	 4.308496	-1.807759	-15.326170	-5.156906	 89.782130	 78.203890	 180.000000	-54.697670	 55.620190	 40.991890	 12.399900	-4.727394	 97.274850	-8.996900	 10.902770	 26.229290	 5.716295	 19.173350	-3.684826	 5.027458	 0.246833	-9.377971	-2.350882	 35.473990	 5.254307
-0.731659	-0.007463	 1.269982	-176.906300	-3.657029	 1.314037	 13.479690	-4.272354	 172.389100	-7.420721	-30.112440	-4.484160	-44.553420	 80.365650	 38.210720	-2.385833	 28.452760	 0.000004	-7.971912	 4.016779	-177.202000	 3.215908	-21.334180	 1.251463	 22.989230	 79.858630	-19.401090	 2.384659	 28.388700	-0.000001	-20.223510	 5.231676	-1.904498	-10.780900	 0.667571	-7.381390	 9.530586	 0.988903	 8.967728	-91.776130	 78.527360	 180.000000	 14.581260	 71.300000	-17.042720	-14.845590	-2.903096	-40.839500	-4.002356	-34.392390	-3.311301	-4.130354	 21.526190	 0.991307	-5.167926	 0.731697	 3.519349	-1.378229	 35.397820	-2.634230	-7.407435	-0.218190	 3.808510	-1.380989	-14.001710	-4.770512	 89.782180	 78.203890	 179.999900	-46.559580	 53.284050	 31.934540	 13.244200	-5.229758	 105.976500	-2.876470	 16.422740	 23.495510	 5.716295	 19.173350	-3.684826	 5.027458	 0.246833	-9.377971	-2.350882	 35.473990	 5.254307
